<?xml version="1.0" standalone="no"?>
<!DOCTYPE svg PUBLIC "-//W3C//DTD SVG 20010904//EN"
 "http://www.w3.org/TR/2001/REC-SVG-20010904/DTD/svg10.dtd">
<svg version="1.0" xmlns="http://www.w3.org/2000/svg"
 width="528.000000pt" height="528.000000pt" viewBox="0 0 528.000000 528.000000"
 preserveAspectRatio="xMidYMid meet">
<metadata>
Created by potrace 1.11, written by Peter Selinger 2001-2013
</metadata>
<g transform="translate(0.000000,528.000000) scale(0.100000,-0.100000)"
fill="#000000" stroke="none">
<path d="M2333 5267 c-2 -4 -13 -5 -23 -2 -10 3 -21 1 -25 -5 -3 -5 -1 -10 6
-10 8 0 6 -7 -5 -19 -10 -11 -25 -17 -34 -14 -10 4 -13 2 -8 -5 4 -7 2 -12 -3
-12 -17 0 -13 18 7 30 14 9 12 10 -13 8 -30 -3 -41 -25 -20 -41 6 -5 4 -7 -5
-4 -8 2 -28 -5 -45 -17 -38 -26 -59 -46 -48 -46 5 0 14 5 21 12 9 9 12 9 12 0
0 -7 -7 -15 -15 -18 -8 -4 -15 -14 -15 -23 0 -9 3 -12 8 -6 4 6 26 23 50 38
23 15 40 32 37 37 -3 6 1 7 10 3 14 -5 14 -8 3 -15 -9 -7 -1 -8 22 -4 32 6 33
5 15 -8 -11 -9 -28 -16 -37 -16 -10 0 -18 -5 -18 -11 0 -5 -3 -8 -8 -6 -4 3
-7 -10 -8 -28 -1 -32 0 -33 19 -14 11 10 23 16 26 13 3 -3 -3 -12 -13 -20 -11
-8 -14 -14 -8 -14 7 0 -11 -24 -40 -52 -28 -29 -56 -64 -62 -78 -14 -30 -57
-100 -61 -100 -7 0 14 62 32 94 3 6 -4 1 -15 -11 -12 -12 -24 -33 -28 -47 -6
-25 -32 -54 -43 -48 -3 2 -7 -2 -9 -10 -2 -9 0 -8 8 2 10 13 11 13 7 0 -2 -8
-10 -14 -16 -12 -7 1 -23 -11 -37 -28 -14 -16 -33 -30 -41 -30 -14 0 -14 3 2
20 10 11 22 17 26 14 5 -3 6 2 3 10 -4 11 -12 12 -35 4 -16 -5 -29 -14 -29
-19 0 -5 -4 -9 -9 -9 -4 0 -6 12 -3 26 3 18 1 25 -6 20 -6 -3 -14 -1 -18 5 -4
8 -3 9 4 5 7 -4 12 -3 12 3 0 5 16 30 36 56 52 68 37 75 -29 13 -31 -30 -57
-51 -57 -47 0 4 5 11 10 14 6 3 10 12 10 18 0 7 -9 1 -20 -13 -11 -14 -18 -30
-15 -37 2 -7 -2 -10 -9 -7 -19 7 -45 -22 -39 -44 3 -13 -2 -21 -15 -25 -13 -3
-33 -29 -51 -66 -37 -72 -37 -71 -19 -82 10 -7 9 -9 -3 -9 -19 0 -34 -30 -20
-39 5 -4 1 -22 -9 -44 -19 -38 -16 -50 4 -21 10 13 12 13 13 -5 1 -12 -3 -21
-9 -21 -12 0 -1 -15 10 -15 4 0 13 -4 19 -8 8 -5 23 -1 35 8 13 8 21 16 19 18
-3 1 -2 13 2 26 3 12 10 20 16 17 5 -4 13 -1 17 5 4 7 3 9 -3 6 -17 -11 -24
23 -9 39 21 20 32 17 13 -4 -15 -16 -15 -19 2 -29 16 -10 25 -6 60 23 23 20
41 42 41 50 0 7 15 21 33 29 17 8 52 26 76 40 46 26 71 32 71 15 0 -15 29 0
35 18 3 10 15 28 26 42 l20 25 -20 -42 c-20 -41 -17 -45 21 -29 9 4 21 5 26 2
4 -2 26 -1 47 4 22 5 41 7 43 5 2 -1 5 -28 7 -59 2 -38 -1 -59 -11 -67 -8 -6
-14 -18 -14 -25 0 -8 -6 -14 -12 -14 -9 0 -8 -4 2 -11 11 -8 12 -12 3 -16 -7
-2 -13 -11 -13 -19 0 -8 -5 -14 -11 -14 -6 0 -9 -8 -6 -19 3 -12 -1 -18 -12
-17 -10 1 -15 -5 -13 -18 2 -10 -1 -15 -6 -12 -5 3 -16 -2 -23 -11 -10 -12
-10 -14 -1 -9 7 4 12 2 12 -5 0 -17 -62 -75 -88 -83 -12 -4 -32 -26 -43 -48
-14 -27 -25 -38 -35 -34 -12 4 -14 1 -9 -14 8 -26 -3 -60 -20 -60 -8 0 -16 -4
-19 -9 -3 -4 7 -6 22 -5 15 2 21 1 15 -2 -7 -3 -13 -15 -13 -26 0 -21 0 -21
-21 -2 -22 19 -22 19 -11 -3 9 -17 9 -22 -3 -27 -8 -3 -15 -11 -15 -18 0 -9 3
-8 10 2 5 8 10 10 10 4 0 -7 -13 -26 -30 -44 -19 -21 -30 -43 -30 -62 0 -17
-4 -27 -10 -23 -5 3 -10 0 -10 -8 0 -10 7 -14 23 -10 19 4 20 3 5 -7 -10 -6
-18 -18 -18 -25 0 -8 -4 -15 -10 -15 -5 0 -10 -8 -10 -17 0 -13 2 -15 8 -5 5
7 16 10 25 6 14 -5 15 -8 2 -21 -13 -12 -11 -17 13 -41 21 -21 28 -24 33 -13
4 12 7 11 12 -2 3 -9 4 -24 1 -32 -4 -8 -1 -15 5 -15 6 0 11 -7 11 -16 0 -11
6 -15 18 -12 12 3 24 -2 31 -13 6 -11 7 -19 2 -19 -6 0 -13 5 -16 10 -11 18
-25 10 -22 -12 2 -12 12 -25 23 -30 16 -7 15 -8 -4 -4 -17 3 -22 1 -19 -9 3
-7 -3 -22 -13 -33 -14 -15 -16 -22 -7 -25 8 -4 7 -6 -3 -6 -8 -1 -28 -17 -45
-36 -18 -21 -39 -35 -52 -35 -13 0 -23 -5 -23 -11 0 -12 -25 -39 -37 -39 -4 0
-14 -9 -21 -21 -8 -12 -9 -18 -3 -14 6 3 11 2 11 -4 0 -5 -9 -12 -19 -16 -19
-6 -33 -39 -35 -82 -1 -12 -6 -27 -13 -34 -10 -10 -9 -15 5 -25 16 -13 16 -13
-2 -14 -15 0 -16 -3 -6 -15 7 -8 10 -23 8 -33 -3 -10 2 -24 10 -32 11 -10 12
-15 4 -18 -22 -7 -13 -32 12 -32 14 0 28 -5 31 -10 4 -6 11 -8 16 -5 17 11 9
-25 -11 -45 -15 -15 -20 -36 -23 -100 -2 -44 -8 -85 -13 -90 -6 -6 -7 -38 -3
-78 4 -37 5 -70 2 -74 -2 -5 1 -8 7 -8 6 0 8 -5 5 -10 -4 -6 -11 -7 -17 -4 -7
5 -9 0 -5 -15 3 -12 2 -34 -3 -50 -4 -15 -5 -58 -1 -94 5 -51 4 -70 -7 -81
-16 -16 -18 -59 -5 -133 8 -41 7 -50 -4 -46 -7 3 -13 0 -13 -6 0 -6 5 -11 10
-11 10 0 7 -41 -5 -60 -3 -5 1 -10 11 -10 12 0 14 -4 7 -12 -13 -17 -15 -91
-3 -83 6 3 10 -3 10 -14 0 -12 -4 -21 -10 -21 -18 0 -10 -18 10 -23 11 -3 20
-11 19 -19 0 -10 -2 -10 -6 0 -2 6 -12 12 -21 12 -14 0 -14 -2 -3 -9 8 -5 10
-14 6 -21 -5 -9 -4 -11 3 -6 7 4 12 1 12 -9 0 -9 -5 -13 -11 -9 -6 3 -4 -4 4
-17 20 -31 43 -109 46 -153 1 -15 4 -16 15 -7 17 14 25 4 32 -37 8 -44 13 -54
29 -48 8 3 17 0 21 -6 5 -7 -2 -9 -20 -6 -14 3 -29 1 -33 -5 -3 -5 -1 -7 5 -3
13 8 26 -11 29 -44 1 -14 0 -19 -3 -12 -3 6 -10 12 -16 12 -6 0 -5 -6 2 -15
16 -19 14 -21 -27 -29 -25 -6 -34 -3 -47 15 -20 29 -56 33 -56 6 0 -16 -3 -17
-15 -7 -12 10 -13 1 -9 -67 3 -43 7 -112 9 -153 3 -77 29 -277 41 -317 3 -13
9 -23 13 -23 3 0 7 -10 7 -22 5 -86 9 -116 14 -113 4 2 7 -9 7 -24 0 -16 7
-37 17 -46 21 -22 34 -12 15 12 -12 15 -11 15 14 -1 15 -11 38 -16 52 -14 14
3 25 1 25 -5 0 -7 5 -6 12 1 10 10 10 15 -2 22 -13 8 -12 10 3 10 22 0 35 -29
17 -40 -21 -13 -3 -28 30 -25 17 1 33 5 37 9 12 11 59 6 79 -9 18 -13 18 -14
1 -15 -15 0 -16 -2 -5 -13 7 -7 24 -18 38 -24 23 -12 22 -12 -13 -7 -35 6 -37
5 -35 -17 3 -22 -1 -24 -42 -25 l-45 -1 45 4 c44 4 45 5 20 18 -18 10 -20 14
-8 15 24 0 32 18 14 35 -19 20 -28 19 -24 -2 3 -16 -6 -18 -74 -18 -43 0 -78
3 -78 8 0 7 23 11 48 8 6 -1 20 3 30 8 12 7 2 9 -37 5 -30 -3 -59 -7 -64 -11
-6 -4 -7 4 -3 21 5 19 3 26 -9 26 -8 0 -15 -4 -15 -10 0 -5 -6 -7 -14 -4 -8 3
-17 1 -21 -5 -3 -6 1 -11 10 -11 9 0 13 -5 10 -11 -4 -6 1 -17 11 -24 18 -13
17 -14 -5 -8 -18 4 -22 2 -19 -8 3 -8 1 -22 -4 -31 -7 -16 -4 -18 27 -18 19 0
35 -4 35 -9 0 -5 -13 -8 -30 -7 -16 0 -29 -3 -29 -9 0 -5 6 -9 13 -7 16 3 27
-41 15 -60 -7 -10 -9 -9 -9 4 0 11 -5 15 -15 12 -11 -5 -9 -11 10 -30 28 -28
30 -35 14 -51 -9 -9 -7 -10 9 -6 12 3 30 2 39 -2 15 -7 13 -9 -11 -14 -22 -4
-32 -14 -38 -36 -4 -16 -18 -37 -30 -47 -19 -14 -20 -18 -6 -18 9 0 19 -4 22
-8 3 -5 -8 -8 -25 -7 -16 1 -32 -2 -35 -7 -6 -10 -44 9 -44 22 0 6 7 10 15 10
8 0 15 9 15 20 0 11 -3 20 -7 20 -9 0 -9 6 -20 250 -6 126 -13 181 -23 197
-19 29 -23 29 -55 -1 -22 -21 -24 -27 -15 -52 9 -23 9 -27 -1 -16 -22 20 -28
14 -22 -23 4 -23 2 -35 -6 -35 -6 0 -11 5 -11 12 0 6 -3 8 -6 5 -4 -4 1 -18
10 -32 17 -26 9 -34 -12 -13 -18 18 -16 -10 3 -46 18 -34 18 -36 4 -36 -5 0
-8 4 -5 9 3 5 -6 9 -20 9 -23 0 -24 -2 -9 -18 16 -18 21 -45 6 -35 -5 3 -12 1
-15 -4 -9 -14 4 -41 19 -41 7 0 18 -15 24 -32 l11 -33 -23 28 c-28 31 -33 33
-40 13 -4 -10 -1 -13 9 -9 7 3 14 0 14 -6 0 -6 -7 -11 -16 -11 -8 0 -12 -4 -9
-10 3 -5 2 -10 -3 -10 -5 0 -8 -15 -7 -33 2 -25 6 -31 21 -29 17 3 16 1 -3
-13 -15 -10 -23 -26 -22 -43 1 -17 3 -21 6 -9 2 9 9 15 14 12 5 -4 4 -14 -3
-25 -11 -17 -13 -17 -24 -2 -12 16 -13 15 -20 -3 -4 -11 -12 -24 -18 -28 -7
-5 -2 -7 12 -4 12 3 22 1 22 -4 0 -5 -11 -9 -25 -9 -14 0 -25 -5 -25 -11 0 -6
7 -9 15 -6 8 4 17 2 20 -3 4 -6 -6 -10 -22 -11 -15 0 -22 -3 -15 -6 6 -2 10
-9 7 -13 -3 -5 -11 -7 -18 -4 -14 5 -40 -33 -32 -46 4 -6 13 -10 20 -10 9 0
12 -6 9 -17 -4 -14 -1 -13 14 4 21 24 34 21 25 -5 -5 -11 -2 -14 9 -9 11 4 18
-1 21 -14 4 -14 0 -19 -13 -19 -36 0 -50 -11 -40 -30 5 -9 8 -19 7 -21 -1 -2
6 5 15 16 10 11 18 16 18 11 0 -5 8 -2 18 6 32 29 123 69 192 84 64 15 163 67
181 95 4 7 15 9 24 5 10 -3 28 2 43 13 34 23 144 81 156 81 5 0 35 18 68 41
35 24 68 39 81 37 l22 -3 -22 -20 c-39 -36 -53 -46 -53 -38 0 4 -5 0 -11 -9
-5 -10 -20 -18 -32 -18 -22 -1 -57 -21 -57 -33 0 -7 -24 -39 -53 -69 -9 -10
-12 -18 -6 -18 8 0 8 -4 0 -14 -7 -8 -28 -12 -59 -11 -26 1 -50 -3 -54 -9 -6
-8 -11 -7 -17 3 -6 9 -11 10 -15 2 -4 -6 -2 -11 4 -11 6 0 3 -11 -7 -24 -14
-18 -24 -23 -44 -19 -15 3 -29 1 -33 -5 -3 -5 8 -12 24 -15 19 -4 28 -11 25
-20 -8 -19 -70 -21 -89 -2 -16 16 -46 17 -57 2 -3 -4 -18 -3 -33 3 -28 10 -66
-1 -66 -20 0 -5 -12 -10 -27 -12 -16 -2 -27 -8 -25 -16 1 -7 -13 -20 -32 -29
-28 -13 -56 -47 -56 -68 0 -3 721 -5 1602 -5 1458 0 1600 1 1580 16 -12 8 -20
19 -17 24 3 4 -2 11 -11 14 -23 9 -27 8 -20 -9 4 -13 2 -14 -14 -5 -11 6 -20
8 -20 4 0 -3 -7 -1 -15 6 -10 9 -15 9 -15 1 0 -6 -4 -11 -10 -11 -5 0 -9 5 -7
12 1 7 -2 12 -8 13 -5 0 -20 6 -32 13 -12 7 -43 13 -68 14 -40 2 -44 4 -29 15
14 10 20 10 27 0 7 -9 10 -9 14 0 3 10 10 10 26 -2 24 -17 127 -21 127 -5 0
10 -6 12 -64 14 -19 0 -32 4 -30 8 3 4 32 7 64 6 33 -1 55 -5 48 -9 -7 -4 3
-10 25 -14 50 -10 62 -30 14 -22 -21 3 -37 4 -37 2 0 -7 64 -35 82 -35 20 0
24 -20 6 -38 -9 -9 -4 -12 26 -12 30 0 37 3 32 15 -3 9 0 15 9 15 8 0 14 -6
12 -13 -1 -8 15 -13 51 -14 30 -2 51 1 47 6 -3 5 1 11 7 14 31 10 -50 57 -84
49 -4 -1 -10 7 -13 18 -7 22 -50 28 -58 8 -3 -7 -6 -2 -6 12 -1 20 -9 28 -42
38 -22 7 -44 10 -48 8 -4 -3 -8 1 -8 8 0 16 38 15 55 -1 16 -16 36 -17 27 -3
-7 11 45 2 55 -9 9 -11 72 -12 65 -1 -3 5 -18 10 -33 10 -15 1 -40 7 -57 15
l-30 13 47 1 c26 1 50 -3 53 -9 3 -5 16 -10 28 -9 43 1 -79 49 -138 54 -64 5
-81 13 -47 22 12 3 22 7 22 10 0 18 -53 232 -70 283 -45 132 -83 185 -205 280
-138 107 -202 134 -365 151 -174 18 -473 6 -640 -25 -74 -14 -136 -26 -137
-26 -2 0 -3 7 -3 15 0 13 -4 14 -34 1 -30 -13 -41 -13 -82 0 -42 12 -57 12
-128 -2 -45 -8 -95 -17 -113 -19 -18 -2 -38 -7 -45 -11 -6 -4 -49 -9 -95 -10
-67 -3 -83 -1 -83 11 0 8 12 17 28 21 53 11 58 17 22 24 l-35 7 40 3 c22 2 49
4 60 4 15 1 20 8 19 29 -1 17 4 27 12 27 8 0 14 -4 14 -10 0 -5 5 -10 11 -10
5 0 8 4 4 9 -3 6 4 15 15 21 31 17 24 26 -17 23 -21 -2 -31 0 -23 3 8 3 39 17
68 31 45 22 55 24 63 12 6 -10 9 -10 9 -1 0 6 5 12 11 12 5 0 35 11 65 25 30
14 63 25 74 25 33 0 228 126 215 138 -3 3 -13 -1 -22 -9 -31 -25 -80 -49 -87
-42 -3 3 -6 1 -6 -5 0 -7 -8 -12 -18 -12 -10 0 -27 -8 -38 -18 -11 -10 -25
-17 -32 -14 -6 2 -12 -2 -12 -8 0 -7 -8 -9 -20 -5 -14 4 -20 2 -20 -9 0 -13
-42 -30 -80 -31 -8 0 -32 -6 -53 -14 -29 -10 -42 -10 -50 -2 -8 8 -5 11 11 11
15 0 20 5 16 15 -7 18 7 20 25 2 11 -10 11 -8 2 11 -7 12 -8 22 -2 22 5 0 12
-6 14 -12 4 -10 6 -10 6 0 1 6 9 12 19 12 21 1 52 23 52 39 0 6 5 11 11 11 5
0 7 5 3 11 -4 8 0 8 15 0 11 -7 21 -9 21 -6 0 4 7 -1 16 -9 8 -9 20 -16 27
-16 6 0 2 7 -9 15 -15 11 -16 14 -3 15 8 0 21 -6 28 -13 11 -10 12 -9 6 3 -4
8 -15 23 -23 33 -8 9 -13 18 -11 20 2 1 27 13 54 26 28 12 58 27 67 32 23 12
26 11 31 -3 2 -7 3 -5 1 5 -1 10 5 21 14 24 39 12 62 27 68 45 3 10 9 16 14
13 5 -3 19 9 31 27 13 18 28 36 34 41 7 5 5 10 -4 16 -10 6 -10 13 -2 28 9 17
7 20 -12 20 -43 1 -47 3 -48 36 -1 17 -3 24 -6 14 -4 -14 -8 -16 -19 -6 -11 9
-14 8 -14 -5 0 -9 4 -16 10 -16 5 0 7 -7 4 -15 -4 -8 -11 -15 -16 -15 -6 0
-17 -8 -24 -17 -7 -10 -16 -15 -20 -11 -4 4 -2 14 5 22 10 11 7 14 -13 12 -13
0 -22 -4 -19 -8 10 -17 -17 -7 -36 13 -19 21 -19 21 -39 1 -12 -12 -16 -24
-11 -29 6 -6 4 -10 -5 -10 -7 0 -21 16 -30 35 -13 26 -20 32 -28 24 -8 -8 -15
-7 -24 6 -11 14 -13 14 -14 2 0 -13 -1 -13 -10 0 -8 12 -10 12 -10 -5 -1 -20
-1 -20 -15 -1 -8 11 -15 14 -15 7 0 -7 -5 -9 -12 -5 -6 4 -8 3 -4 -4 3 -6 2
-13 -3 -16 -5 -3 -12 2 -16 12 -6 15 -9 13 -21 -11 -15 -27 -40 -28 -30 -1 3
7 1 16 -4 19 -4 3 -10 0 -12 -6 -3 -8 -9 -6 -20 5 -23 22 -41 20 -33 -4 3 -11
2 -20 -4 -20 -5 0 -13 9 -16 20 -3 11 -13 20 -21 20 -17 0 -19 17 -1 23 6 3 2
4 -10 4 -12 -1 -25 -7 -27 -14 -3 -7 -10 -13 -16 -13 -7 0 -8 6 -1 19 8 15 6
20 -14 29 -14 7 -25 18 -25 27 0 9 -9 15 -25 15 -17 0 -25 5 -25 18 0 29 28
62 47 55 12 -5 15 -2 10 9 -7 20 23 34 35 16 5 -9 8 -5 8 11 0 15 5 21 13 18
10 -4 13 2 11 21 -2 15 -1 19 2 10 6 -19 34 -25 34 -8 0 6 9 10 19 10 24 0 33
13 25 35 -5 11 -15 15 -30 12 -13 -2 -24 -1 -24 3 0 23 -362 81 -375 61 -3 -5
-14 -7 -24 -4 -10 3 -22 0 -25 -6 -10 -15 16 -51 37 -51 26 0 18 -33 -10 -40
-13 -3 -31 -12 -42 -22 -17 -14 -24 -15 -58 -3 -21 8 -30 14 -20 15 28 0 14
25 -16 28 -53 6 -19 50 48 63 55 10 65 17 45 29 -19 12 -24 50 -5 50 8 0 15
-3 15 -7 0 -5 17 -8 38 -9 20 -1 87 -3 147 -4 68 -3 124 1 146 8 46 16 210 19
272 5 37 -8 57 -20 80 -49 18 -20 35 -45 39 -53 5 -11 7 -9 7 9 1 14 7 49 15
78 11 44 11 54 -1 63 -7 7 -12 18 -11 27 2 8 -3 17 -10 19 -7 3 -12 1 -11 -4
3 -20 -2 -25 -16 -13 -13 10 -19 10 -34 -4 -17 -15 -20 -15 -45 5 -15 12 -59
32 -98 45 -66 23 -77 24 -153 13 -88 -11 -144 -3 -192 28 -23 15 -165 26 -188
14 -20 -11 -54 -9 -65 4 -9 11 -7 12 8 9 10 -3 24 2 31 10 8 9 28 16 46 16 42
0 148 21 160 31 5 5 19 9 32 9 17 0 22 -5 20 -21 -3 -27 20 -37 26 -12 4 17 5
17 6 1 0 -10 6 -18 11 -18 6 0 10 -7 10 -15 0 -18 16 -20 23 -2 4 9 8 8 16 -3
7 -10 11 -11 11 -2 0 8 8 10 25 6 19 -5 25 -2 25 10 0 9 13 27 28 41 27 24 35
55 19 71 -13 13 -7 22 21 37 161 84 168 90 118 107 -28 9 -41 9 -60 -2 -186
-100 -190 -100 -251 -12 -39 57 -71 81 -114 89 -35 6 -45 4 -57 -12 -13 -17
-15 -17 -34 6 -24 27 -22 57 2 53 9 -1 18 4 22 13 4 12 11 13 31 5 15 -6 33
-6 43 -1 9 4 23 6 29 4 7 -3 23 3 35 11 26 18 38 20 38 6 0 -5 -6 -10 -14 -10
-8 0 -18 -5 -21 -10 -10 -16 22 -12 39 5 8 8 22 15 30 15 9 0 16 7 16 15 0 8
8 15 18 16 10 0 12 3 5 6 -15 6 1 25 30 36 9 3 17 13 17 21 0 8 6 17 13 19 9
4 9 6 -1 6 -9 1 -10 6 -2 20 5 11 9 30 8 43 -1 13 2 49 6 80 5 44 3 63 -9 82
-9 13 -14 29 -13 36 2 7 -8 16 -22 20 -22 5 -23 7 -6 13 10 4 16 13 13 21 -3
8 0 22 8 32 9 13 10 23 3 31 -7 9 -7 13 1 13 7 0 9 5 5 11 -4 7 3 19 15 28
l22 17 -23 24 c-16 17 -18 22 -5 17 9 -3 19 -2 22 4 4 5 -2 12 -12 16 -10 4
-23 14 -30 22 -7 9 -13 12 -13 8 0 -4 -13 6 -30 23 -16 16 -34 30 -40 30 -16
0 -41 -26 -33 -34 9 -9 -58 5 -87 18 -13 6 -23 15 -22 20 2 5 -12 16 -30 24
-25 12 -72 16 -198 16 -146 1 -174 -2 -240 -22 -41 -13 -83 -28 -93 -33 -33
-18 -32 0 3 36 19 20 44 35 56 35 13 0 26 5 29 10 3 6 2 10 -3 10 -5 0 -9 7
-9 15 0 8 4 12 9 9 13 -9 49 7 45 19 -5 15 20 40 32 33 5 -4 11 -1 13 6 3 8
12 9 36 0 17 -6 47 -8 66 -5 18 3 36 1 40 -5 3 -6 15 -8 26 -5 11 3 26 1 33
-5 6 -5 66 -9 133 -9 66 0 130 -3 141 -7 12 -4 24 -2 27 3 11 17 34 1 29 -20
-3 -10 -1 -19 5 -19 12 0 24 29 16 41 -3 5 0 9 5 9 6 0 11 9 11 19 0 11 5 23
10 26 6 3 10 1 10 -6 0 -7 2 -10 5 -8 2 3 1 15 -2 28 -6 23 -7 23 -20 6 -8
-12 -13 -14 -13 -6 0 7 9 26 21 42 20 29 20 29 1 29 -11 0 -23 -6 -25 -12 -3
-7 -6 -3 -6 10 -1 13 -5 20 -11 17 -5 -3 -10 2 -10 12 -1 26 -22 50 -42 47
-10 -1 -21 4 -25 11 -5 7 -19 15 -33 19 -21 6 -22 5 -7 -4 9 -6 17 -16 17 -22
0 -7 -13 3 -30 22 -24 27 -31 30 -36 17 -3 -10 -10 -17 -16 -17 -5 0 -7 3 -4
8 9 15 -20 39 -49 40 -35 1 -136 19 -117 21 6 0 12 6 12 12 0 7 -10 9 -26 5
-27 -7 -58 9 -48 25 3 5 16 9 30 9 13 0 24 5 24 10 0 6 4 10 10 10 5 0 7 -7 4
-15 -5 -12 2 -15 30 -15 24 0 39 5 43 16 3 8 16 20 29 25 26 9 33 29 10 29
-17 0 -26 32 -15 53 6 9 5 18 0 21 -5 3 -8 22 -6 41 2 19 0 35 -5 35 -4 0 -11
12 -15 27 -3 15 -14 33 -23 40 -15 11 -14 12 10 13 25 0 76 18 88 30 3 3 14 5
25 5 14 0 21 8 23 28 2 15 8 27 13 27 5 0 9 7 9 15 0 9 9 15 25 15 18 0 23 -4
19 -15 -4 -8 -1 -15 5 -15 6 0 11 7 11 15 0 8 5 15 11 15 6 0 9 7 6 15 -4 8
-2 17 3 20 6 4 10 1 10 -4 0 -6 9 -11 20 -11 10 0 24 -8 29 -17 9 -16 10 -16
11 -1 0 9 6 19 13 21 6 3 -4 6 -23 8 -27 1 -30 3 -11 6 14 3 19 8 13 12 -7 4
-2 15 14 30 13 13 24 18 24 12 0 -20 19 -11 22 10 3 21 4 20 31 -5 32 -30 43
-32 51 -10 8 21 27 8 19 -14 -4 -10 -2 -14 3 -9 5 5 9 18 9 30 0 14 11 27 30
36 l30 15 -25 6 c-22 6 -19 8 20 15 l45 9 -45 7 c-38 5 -40 6 -12 7 37 2 44
22 8 22 -33 0 -42 17 -14 26 34 10 77 58 46 51 -6 -1 -14 6 -16 16 -2 12 2 17
15 15 60 -5 113 3 113 17 0 8 3 15 8 16 17 2 82 1 137 -1 47 -2 54 -4 30 -9
l-30 -7 27 -7 c15 -4 35 -16 45 -26 12 -13 31 -19 58 -19 22 1 53 -4 69 -11
37 -15 62 -10 58 12 -3 19 18 23 36 5 8 -8 15 -8 26 1 12 10 21 9 48 -6 18
-10 35 -21 38 -24 10 -12 49 -29 67 -29 16 0 61 -37 88 -72 6 -7 27 -34 48
-60 59 -74 89 -165 90 -273 0 -152 -7 -290 -15 -296 -5 -3 -2 -26 6 -51 9 -24
17 -53 19 -64 1 -10 5 -23 8 -29 13 -21 18 -63 19 -150 2 -149 -11 -476 -21
-534 -5 -30 -7 -56 -5 -58 4 -5 36 91 36 109 0 23 24 68 37 68 6 0 20 11 31
25 11 14 25 25 31 25 6 0 8 7 5 15 -4 8 -17 15 -30 15 -13 0 -24 1 -24 3 0 1
7 24 15 51 22 71 48 255 42 293 -3 17 -2 33 3 35 4 2 10 19 13 38 3 19 13 73
22 120 18 98 23 130 26 183 1 21 5 40 9 42 3 2 2 34 -3 72 -4 37 -10 102 -12
143 -8 177 -18 246 -48 325 -17 44 -34 85 -38 90 -4 6 -21 37 -38 70 -40 77
-114 183 -173 248 -27 28 -48 56 -48 61 0 4 14 6 30 4 19 -3 30 0 30 8 0 11
-25 21 -72 30 -29 6 -73 37 -112 82 -21 23 -45 42 -53 42 -8 0 -11 5 -8 10 3
6 2 10 -2 10 -5 0 -21 11 -36 25 -15 14 -35 25 -45 23 -9 -2 -16 3 -15 10 3
12 -9 16 -35 13 -7 -1 -11 3 -10 10 2 6 -3 14 -11 17 -8 3 -11 0 -7 -7 9 -14
-24 -2 -42 16 -19 18 -38 17 -23 -1 10 -12 8 -13 -8 -9 -12 3 -21 9 -21 13 0
4 -10 10 -22 13 -13 3 -42 12 -65 21 -44 16 -78 12 -66 -8 3 -6 3 -8 -2 -4 -4
4 -16 3 -26 -3 -13 -6 -19 -6 -19 1 0 5 6 10 14 10 8 0 16 6 19 13 3 9 -7 13
-36 14 -32 1 -47 -5 -67 -25 -19 -19 -21 -24 -7 -19 11 4 24 4 30 0 7 -4 3 -9
-12 -13 -15 -3 -27 -15 -31 -31 -7 -23 -5 -25 22 -21 23 4 27 1 22 -12 -3 -9
-1 -16 5 -16 6 0 11 -4 11 -9 0 -4 -11 -6 -25 -3 -14 2 -25 9 -25 14 0 5 -4 7
-9 4 -5 -3 -11 1 -15 9 -3 8 -12 12 -21 9 -20 -8 -20 20 0 40 10 9 11 17 5 21
-6 3 -14 -2 -18 -12 -4 -10 -11 -19 -17 -20 -5 -1 -17 -3 -25 -6 -8 -2 -12 -2
-7 0 4 3 4 10 1 15 -5 7 -2 8 7 3 11 -7 12 -6 2 7 -7 8 -10 18 -6 22 13 13 10
44 -4 39 -10 -4 -11 -9 -2 -19 16 -20 -10 -19 -39 2 -13 9 -34 13 -52 10 -17
-2 -30 0 -30 5 0 18 -21 9 -29 -13 l-8 -22 -6 24 c-5 19 -9 21 -21 11 -8 -7
-17 -8 -20 -3 -7 11 -96 15 -96 4 0 -4 3 -12 8 -18 4 -5 0 -3 -8 6 -16 16 -62
22 -70 10 -3 -5 -20 -10 -39 -13 -19 -3 -46 -19 -63 -36 -27 -28 -101 -52
-115 -37 -4 3 7 6 23 6 22 0 26 3 14 10 -11 7 -11 10 -2 10 7 0 11 4 8 8 -3 5
1 20 9 35 12 23 11 25 -7 24 -11 -1 -22 -5 -25 -10z m131 -66 c-9 -10 -26 18
-18 30 5 9 9 8 14 -7 4 -10 6 -21 4 -23z m377 16 c-10 -9 -11 -8 -5 6 3 10 9
15 12 12 3 -3 0 -11 -7 -18z m-343 -12 c-3 -3 -9 2 -12 12 -6 14 -5 15 5 6 7
-7 10 -15 7 -18z m552 -9 c0 -9 -30 -14 -35 -6 -4 6 3 10 14 10 12 0 21 -2 21
-4z m-728 -76 c-2 -3 -7 1 -9 8 -3 6 -9 12 -14 12 -6 0 -7 -5 -3 -12 4 -7 3
-8 -4 -4 -7 4 -12 2 -12 -3 0 -6 -4 -11 -10 -11 -20 0 -10 20 18 34 24 13 28
13 33 -2 4 -10 4 -19 1 -22z m1038 -5 c-7 -8 -17 -15 -23 -15 -6 0 -2 7 9 15
25 19 30 19 14 0z m-180 -13 c0 -5 -7 -9 -15 -9 -8 0 -15 4 -15 9 0 4 7 8 15
8 8 0 15 -4 15 -8z m140 -16 c0 -2 -8 -10 -17 -17 -16 -13 -17 -12 -4 4 13 16
21 21 21 13z m-1053 -38 c-3 -8 -6 -5 -6 6 -1 11 2 17 5 13 3 -3 4 -12 1 -19z
m-87 -258 c-11 -22 -22 -40 -25 -40 -6 0 15 50 28 68 19 24 17 11 -3 -28z
m-155 -23 c-8 -13 -12 -27 -8 -32 5 -4 2 -5 -4 -1 -7 4 -13 3 -13 -1 0 -5 -7
-18 -16 -29 -14 -18 -14 -18 -3 6 14 30 49 80 55 80 2 0 -2 -10 -11 -23z m25
-62 c-7 -8 -17 -15 -23 -15 -5 0 -2 9 8 20 21 23 35 19 15 -5z m-355 -265 c-3
-5 -11 -10 -16 -10 -6 0 -7 5 -4 10 3 6 11 10 16 10 6 0 7 -4 4 -10z m765
-233 c0 -18 -21 -37 -41 -37 -26 0 -29 23 -5 36 29 16 46 17 46 1z m-120 -117
c0 -5 -9 -10 -21 -10 -11 0 -17 5 -14 10 3 6 13 10 21 10 8 0 14 -4 14 -10z
m-40 -79 c0 -6 -4 -13 -10 -16 -5 -3 -10 1 -10 9 0 9 5 16 10 16 6 0 10 -4 10
-9z m-50 -111 c0 -5 -2 -10 -4 -10 -3 0 -8 5 -11 10 -3 6 -1 10 4 10 6 0 11
-4 11 -10z m107 -6 c-3 -3 -12 -4 -19 -1 -8 3 -5 6 6 6 11 1 17 -2 13 -5z
m-99 -25 c-2 -6 -8 -10 -13 -10 -5 0 -11 4 -13 10 -2 6 4 11 13 11 9 0 15 -5
13 -11z m-508 -530 c0 -11 -4 -18 -10 -14 -5 3 -7 12 -3 20 7 21 13 19 13 -6z
m646 -26 c19 -25 17 -30 -12 -37 -34 -9 -37 -4 -23 28 14 31 18 32 35 9z
m-238 -11 c2 -7 -2 -10 -12 -6 -9 3 -16 11 -16 16 0 13 23 5 28 -10z m67 -2
c18 -8 17 -9 -7 -9 -16 -1 -28 4 -28 9 0 12 8 12 35 0z m357 -22 c-7 -7 -12
-8 -12 -2 0 6 3 14 7 17 3 4 9 5 12 2 2 -3 -1 -11 -7 -17z m-22 -68 c0 -5 -2
-10 -4 -10 -3 0 -8 5 -11 10 -3 6 -1 10 4 10 6 0 11 -4 11 -10z m-260 -12 c8
0 30 3 48 7 25 6 32 4 32 -8 0 -25 -65 -59 -118 -61 -27 -2 -54 -6 -60 -10 -6
-3 -13 -2 -16 3 -3 5 -19 8 -36 7 -16 -1 -30 1 -30 5 0 4 -10 9 -23 13 -15 3
-23 14 -25 31 l-2 26 108 -6 c59 -4 114 -7 122 -7z m-102 -108 c2 -12 -2 -27
-10 -32 -9 -6 -5 -7 12 -2 33 9 37 13 21 23 -7 5 -10 14 -7 20 9 14 86 7 96
-9 4 -7 13 -9 20 -5 9 6 10 3 3 -10 -6 -10 -8 -26 -6 -36 6 -22 4 -23 -31 -9
-14 5 -26 6 -26 2 0 -13 15 -29 30 -34 10 -4 6 -8 -12 -13 -18 -5 -28 -14 -28
-26 0 -10 -7 -19 -15 -19 -9 0 -15 -6 -14 -12 4 -24 -13 -48 -33 -48 -11 0
-18 -5 -16 -11 2 -6 7 -10 11 -9 28 4 54 -78 36 -112 -8 -16 -6 -23 11 -38 13
-11 19 -24 14 -31 -5 -9 -2 -10 9 -6 11 4 17 1 17 -8 0 -8 -4 -15 -10 -15 -5
0 -7 -12 -4 -28 5 -23 -5 -38 -70 -107 -41 -43 -73 -82 -70 -87 3 -4 -3 -5
-13 -1 -15 6 -16 4 -5 -9 9 -11 10 -18 2 -23 -20 -12 -49 -81 -40 -95 5 -8 3
-19 -6 -27 -8 -8 -14 -23 -14 -33 0 -10 -10 -26 -22 -36 l-23 -16 23 5 c23 5
23 5 7 -19 -8 -13 -13 -25 -10 -25 3 -1 10 -3 15 -4 6 -1 13 -3 16 -4 4 0 2
-7 -3 -13 -20 -25 -32 -77 -20 -81 11 -3 -47 -37 -65 -37 -5 0 3 16 18 35 21
28 24 38 14 50 -6 8 -9 19 -6 24 13 21 -6 60 -37 74 -35 18 -47 14 -47 -13 0
-25 -41 -23 -48 2 -2 10 -8 18 -13 18 -5 0 -6 6 -3 14 4 10 -3 16 -22 18 -15
2 -29 8 -31 15 -3 7 3 9 16 6 12 -3 21 -1 21 6 0 6 -6 11 -14 11 -27 0 -26 17
1 44 26 26 26 27 7 42 -10 9 -14 13 -7 9 7 -3 22 4 34 16 17 17 23 19 30 8 6
-10 9 -6 9 14 0 15 -2 27 -4 27 -2 0 -11 3 -19 6 -10 4 -15 -1 -14 -13 1 -9
-2 -18 -8 -18 -5 0 -16 -4 -22 -8 -10 -6 -13 0 -13 22 0 17 5 31 11 31 5 0 8
-4 4 -9 -3 -5 -1 -12 5 -16 5 -3 12 7 16 22 7 30 36 63 56 64 9 0 8 3 -2 6
-27 11 -39 35 -27 55 8 12 8 21 1 28 -12 12 -6 72 7 64 5 -3 9 0 9 5 0 21 2
26 23 55 12 17 20 42 19 59 -2 22 1 28 12 24 8 -3 16 -1 19 6 2 6 18 10 35 9
18 -1 32 2 32 8 0 5 -4 10 -10 10 -5 0 -10 14 -10 32 0 30 -1 31 -17 16 -13
-14 -14 -20 -3 -32 11 -14 8 -16 -21 -15 -19 1 -26 3 -16 6 23 6 22 20 -3 33
-23 12 -28 60 -6 60 8 0 17 8 19 18 3 10 5 7 6 -10 1 -22 -2 -26 -16 -21 -16
6 -16 5 -4 -10 13 -16 15 -16 28 3 8 11 19 20 24 20 14 0 39 26 39 39 0 6 3
10 8 9 4 0 15 2 25 6 21 10 23 36 2 36 -8 0 -15 7 -15 15 0 17 16 20 25 5 7
-12 45 5 45 21 0 6 -8 6 -21 -1 -27 -15 -36 -5 -14 16 9 9 30 17 46 16 16 0
29 4 29 10 0 20 25 1 28 -22z m-158 -97 c-12 -8 -24 -12 -27 -9 -9 8 30 36 40
29 5 -3 -1 -12 -13 -20z m-125 -63 c3 -5 1 -10 -4 -10 -6 0 -11 5 -11 10 0 6
2 10 4 10 3 0 8 -4 11 -10z m-5 -44 c0 -13 -7 -26 -15 -30 -8 -3 -15 -1 -15 4
0 6 5 10 11 10 6 0 8 9 4 20 -4 11 -2 20 4 20 6 0 11 -11 11 -24z m367 -68
c-3 -8 -6 -5 -6 6 -1 11 2 17 5 13 3 -3 4 -12 1 -19z m-17 -88 c0 -5 -4 -10
-10 -10 -5 0 -10 5 -10 10 0 6 5 10 10 10 6 0 10 -4 10 -10z m50 -55 c0 -8 -4
-15 -10 -15 -5 0 -10 7 -10 15 0 8 5 15 10 15 6 0 10 -7 10 -15z m-457 -82
c-7 -2 -19 -2 -25 0 -7 3 -2 5 12 5 14 0 19 -2 13 -5z m602 -73 c-3 -5 -11
-10 -16 -10 -6 0 -7 5 -4 10 3 6 11 10 16 10 6 0 7 -4 4 -10z m-242 -310 c7
-26 -7 -34 -33 -18 -30 19 -25 28 21 37 4 0 9 -8 12 -19z m51 -5 c16 -24 15
-25 -3 -25 -18 0 -35 33 -23 44 8 9 8 8 26 -19z m-464 -141 c0 -8 -4 -12 -10
-9 -5 3 -10 10 -10 16 0 5 5 9 10 9 6 0 10 -7 10 -16z m0 -34 c0 -5 -2 -10 -4
-10 -3 0 -8 5 -11 10 -3 6 -1 10 4 10 6 0 11 -4 11 -10z m513 -5 c4 -8 2 -17
-2 -20 -5 -2 -11 4 -14 15 -6 23 8 27 16 5z m-553 -65 c0 -5 -2 -10 -4 -10 -3
0 -8 5 -11 10 -3 6 -1 10 4 10 6 0 11 -4 11 -10z m150 -129 c0 -12 -20 -25
-27 -18 -7 7 6 27 18 27 5 0 9 -4 9 -9z m716 -68 c-11 -12 -56 -14 -56 -3 0 5
14 10 32 10 17 0 28 -3 24 -7z m-694 -30 c-6 -2 -10 -9 -6 -14 3 -5 1 -9 -5
-9 -13 0 -22 15 -14 24 3 3 13 6 22 5 11 0 12 -2 3 -6z m693 -3 c3 -5 -1 -10
-10 -10 -9 0 -13 5 -10 10 3 6 8 10 10 10 2 0 7 -4 10 -10z m-629 -36 c-6 -23
-4 -25 21 -22 15 1 31 7 35 13 4 5 10 6 14 2 4 -4 -6 -21 -22 -38 -18 -19 -23
-28 -11 -24 17 7 24 -5 10 -19 -4 -3 -8 -14 -9 -24 -2 -9 -7 -18 -12 -20 -6
-2 -8 -12 -5 -22 4 -16 0 -20 -18 -20 -14 0 -30 -9 -37 -21 -7 -12 -16 -18
-19 -15 -3 3 -14 1 -25 -5 -18 -10 -19 -8 -13 12 6 18 4 21 -10 16 -13 -6 -16
-2 -13 17 2 16 -5 31 -21 43 -24 19 -24 20 -4 25 12 3 27 2 34 -3 10 -6 11 -9
2 -9 -7 0 -13 -5 -13 -11 0 -20 23 -3 41 31 18 32 18 34 -1 50 -11 9 -17 20
-13 24 10 10 25 7 18 -4 -14 -23 15 -8 37 19 29 37 42 39 34 5z m-96 12 c0 -2
-7 -7 -16 -10 -8 -3 -12 -2 -9 4 6 10 25 14 25 6z m5 -64 c12 -8 13 -27 3 -38
-5 -4 -8 0 -8 9 0 10 -7 17 -16 17 -8 0 -12 5 -9 10 7 12 16 12 30 2z m179
-53 c5 -31 3 -37 -18 -47 -19 -9 -25 -8 -30 4 -3 8 -2 14 2 14 4 0 8 9 9 21 2
18 22 54 28 47 1 -2 5 -19 9 -39z m18 9 c-8 -8 -9 -4 -5 13 4 13 8 18 11 10 2
-7 -1 -18 -6 -23z m-375 -10 c-3 -8 -6 -5 -6 6 -1 11 2 17 5 13 3 -3 4 -12 1
-19z m439 7 c-9 -9 -20 -24 -25 -33 -5 -9 -12 -14 -16 -10 -7 7 34 58 48 58 4
0 1 -7 -7 -15z m-321 -35 c7 -12 -2 -12 -30 0 -19 8 -19 9 2 9 12 1 25 -3 28
-9z m1520 -20 c-3 -5 -10 -10 -16 -10 -5 0 -9 5 -9 10 0 6 7 10 16 10 8 0 12
-4 9 -10z m-448 -27 c-3 -3 -11 -2 -17 2 -9 6 -9 10 1 16 14 8 27 -7 16 -18z
m-867 -3 c0 -5 -2 -10 -4 -10 -3 0 -8 5 -11 10 -3 6 -1 10 4 10 6 0 11 -4 11
-10z m1330 0 c0 -5 -4 -10 -9 -10 -6 0 -13 5 -16 10 -3 6 1 10 9 10 9 0 16 -4
16 -10z m-1395 -34 c-10 -14 -22 -23 -27 -20 -6 4 -5 10 3 15 8 5 10 9 4 9 -5
0 -1 7 9 15 27 20 31 12 11 -19z m86 11 c-10 -9 -11 -8 -5 6 3 10 9 15 12 12
3 -3 0 -11 -7 -18z m-48 -34 c-5 -12 -1 -14 18 -8 13 4 21 4 17 0 -4 -4 -2
-17 3 -28 10 -17 9 -19 -8 -15 -13 4 -19 0 -20 -13 -1 -10 3 -22 9 -25 7 -4 8
-2 4 5 -4 6 0 14 9 18 21 8 37 -16 22 -32 -10 -10 -18 -10 -39 3 -34 20 -34
26 -7 53 l22 22 -26 -7 c-21 -5 -25 -3 -21 9 4 8 1 15 -5 15 -19 0 -12 16 8
17 14 1 18 -3 14 -14z m-116 -19 c-3 -3 -12 -4 -19 -1 -8 3 -5 6 6 6 11 1 17
-2 13 -5z m220 -80 c-3 -3 -12 -4 -19 -1 -8 3 -5 6 6 6 11 1 17 -2 13 -5z
m-29 -26 c-2 -8 8 -13 22 -14 49 -1 63 -4 56 -11 -24 -24 -107 0 -91 27 9 14
16 13 13 -2z m167 -49 c4 -6 4 -13 0 -17 -3 -3 -9 -1 -13 5 -4 6 -16 13 -27
16 -16 4 -14 5 7 6 15 0 30 -4 33 -10z m-42 -16 c3 -5 -6 -9 -20 -10 -19 -1
-22 1 -12 8 17 11 26 11 32 2z m-98 -13 c3 -5 1 -10 -4 -10 -6 0 -11 5 -11 10
0 6 2 10 4 10 3 0 8 -4 11 -10z m215 -60 c0 -5 -7 -10 -16 -10 -8 0 -12 5 -9
10 3 6 10 10 16 10 5 0 9 -4 9 -10z m-85 -10 c3 -5 2 -10 -4 -10 -5 0 -13 5
-16 10 -3 6 -2 10 4 10 5 0 13 -4 16 -10z m30 -117 c-2 -10 -4 -20 -4 -23 -1
-3 -5 2 -10 10 -10 15 -6 30 9 30 4 0 7 -8 5 -17z m-161 -39 c17 -7 22 -44 6
-44 -9 0 -30 31 -30 44 0 8 5 7 24 0z m344 -20 c36 -10 25 -22 -28 -29 -67 -9
-66 -32 2 -27 11 1 16 -5 15 -18 -2 -24 -21 -32 -55 -23 -27 7 -27 7 8 14 l35
6 -42 2 c-27 1 -43 6 -43 14 0 11 -29 14 -97 9 -25 -2 -32 -32 -8 -32 8 0 15
-4 15 -10 0 -16 -15 -12 -35 10 -10 11 -22 17 -26 14 -5 -3 -9 -1 -9 4 0 5 11
14 25 20 14 6 25 18 25 27 0 12 12 15 55 15 30 0 55 -4 55 -9 0 -6 17 -4 38 4
45 17 42 16 70 9z m-443 -14 c3 -5 -3 -10 -14 -10 -12 0 -21 5 -21 10 0 6 6
10 14 10 8 0 18 -4 21 -10z m48 -5 c8 -19 0 -57 -14 -66 -17 -10 0 -49 22 -49
11 0 22 6 25 14 9 22 84 4 84 -21 0 -12 3 -13 14 -4 21 17 31 -5 12 -25 -10
-9 -16 -11 -16 -4 0 7 -8 9 -19 5 -15 -5 -18 -2 -14 13 3 15 -2 21 -22 24 -24
5 -26 3 -22 -19 4 -21 3 -22 -12 -10 -33 29 -84 29 -156 1 -11 -4 -16 -3 -12
1 4 5 -3 15 -15 22 -22 13 -22 14 10 10 36 -4 51 8 33 26 -6 6 -11 19 -11 29
0 14 -5 17 -24 12 -13 -3 -27 -1 -30 5 -5 7 3 11 18 11 14 0 26 6 26 13 0 8 2
9 8 1 4 -7 16 -14 27 -16 11 -2 19 -10 18 -16 -4 -18 22 -14 41 7 9 10 14 25
10 35 -3 9 -2 16 4 16 5 0 12 -7 15 -15z m687 5 c0 -13 -20 -13 -40 0 -12 8
-9 10 13 10 15 0 27 -4 27 -10z m-615 -47 c11 -6 16 -15 11 -20 -5 -4 -11 -2
-13 5 -3 6 -16 12 -29 12 -13 0 -24 4 -24 10 0 12 28 8 55 -7z m381 -8 c9 -8
29 -15 45 -15 36 0 39 -14 3 -17 -16 0 -37 9 -53 23 -14 13 -22 24 -18 24 5 0
15 -7 23 -15z m-577 -21 c13 -13 -18 -23 -44 -15 -29 9 -29 9 -5 11 23 1 24 2
5 11 -16 7 -14 8 10 3 16 -3 32 -8 34 -10z m365 -9 c3 -8 2 -15 -3 -15 -5 0
-14 7 -21 15 -10 12 -10 15 3 15 8 0 17 -7 21 -15z m-47 -37 c-3 -8 -6 -5 -6
6 -1 11 2 17 5 13 3 -3 4 -12 1 -19z m33 8 c0 -3 -4 -8 -10 -11 -5 -3 -10 -1
-10 4 0 6 5 11 10 11 6 0 10 -2 10 -4z m-260 -46 c0 -13 -30 -13 -50 0 -11 7
-7 10 18 10 17 0 32 -4 32 -10z m-60 -15 c0 -12 -19 -12 -23 0 -4 9 -1 12 9 8
7 -3 14 -7 14 -8z m123 -2 c-7 -2 -21 -2 -30 0 -10 3 -4 5 12 5 17 0 24 -2 18
-5z m117 -93 c0 -5 -4 -10 -10 -10 -5 0 -10 5 -10 10 0 6 5 10 10 10 6 0 10
-4 10 -10z m-285 -20 c3 -5 2 -10 -4 -10 -5 0 -13 5 -16 10 -3 6 -2 10 4 10 5
0 13 -4 16 -10z m165 -20 c0 -5 -2 -10 -4 -10 -3 0 -8 5 -11 10 -3 6 -1 10 4
10 6 0 11 -4 11 -10z m-75 -20 c3 -5 -3 -10 -14 -10 -12 0 -21 5 -21 10 0 6 6
10 14 10 8 0 18 -4 21 -10z m-500 -190 c3 -5 1 -10 -4 -10 -6 0 -11 5 -11 10
0 6 2 10 4 10 3 0 8 -4 11 -10z m2866 -152 c6 -20 7 -21 9 -3 2 17 3 16 9 -5
4 -14 4 -26 -1 -28 -21 -9 -3 -20 40 -25 26 -2 56 -8 66 -12 14 -6 17 -5 12 3
-4 7 -2 12 3 12 6 0 11 -4 11 -10 0 -5 11 -10 25 -10 14 0 25 -4 25 -10 0 -5
-18 -10 -39 -10 -22 0 -42 -3 -44 -7 -3 -5 -45 -9 -94 -11 -81 -3 -86 -2 -68
12 11 8 29 16 40 16 18 1 18 2 -2 10 -27 11 -30 30 -5 30 11 0 7 7 -15 21 -37
24 -45 46 -10 29 21 -11 21 -10 3 4 -11 9 -23 16 -26 16 -4 0 -7 6 -7 14 0 23
61 -8 68 -36z m-361 22 c0 -5 -4 -10 -10 -10 -5 0 -10 5 -10 10 0 6 5 10 10
10 6 0 10 -4 10 -10z m-32 -23 c2 -9 -2 -17 -9 -17 -7 0 -9 3 -6 7 4 3 1 13
-6 21 -10 13 -9 14 3 10 8 -2 16 -12 18 -21z m297 13 c4 -6 11 -8 16 -5 5 4 9
1 9 -4 0 -14 -10 -13 -40 4 -18 10 -20 14 -8 15 9 0 20 -5 23 -10z m-230 -11
c11 -17 -1 -21 -15 -4 -8 9 -8 15 -2 15 6 0 14 -5 17 -11z m-285 -9 c13 -9 13
-10 0 -10 -8 0 -22 5 -30 10 -13 9 -13 10 0 10 8 0 22 -5 30 -10z m-320 -50
c18 -12 2 -12 -25 0 -13 6 -15 9 -5 9 8 0 22 -4 30 -9z m824 -2 c-3 -4 -9 -8
-15 -8 -5 0 -9 4 -9 8 0 5 7 9 15 9 8 0 12 -4 9 -9z m55 -15 c-1 -19 -3 -22
-6 -10 -3 11 -11 16 -19 13 -8 -3 -14 -1 -14 4 0 5 8 11 18 13 9 3 18 5 20 6
1 0 1 -11 1 -26z m-436 -3 c9 0 17 -5 17 -10 0 -6 -12 -9 -27 -6 -16 2 -34 5
-40 5 -7 1 -13 6 -13 12 0 7 9 9 23 5 12 -3 30 -6 40 -6z m34 -12 c-3 -8 -6
-5 -6 6 -1 11 2 17 5 13 3 -3 4 -12 1 -19z m-2247 8 c0 -3 -4 -8 -10 -11 -5
-3 -10 -1 -10 4 0 6 5 11 10 11 6 0 10 -2 10 -4z m2470 -21 c0 -8 -4 -15 -8
-15 -5 0 -9 7 -9 15 0 8 4 15 9 15 4 0 8 -7 8 -15z m160 -5 c0 -5 -15 -10 -32
-9 -31 1 -32 1 -8 9 35 11 40 11 40 0z m-693 -16 c-3 -3 -12 -4 -19 -1 -8 3
-5 6 6 6 11 1 17 -2 13 -5z m293 -4 c0 -5 -5 -10 -11 -10 -5 0 -7 5 -4 10 3 6
8 10 11 10 2 0 4 -4 4 -10z m-237 -7 c-7 -2 -19 -2 -25 0 -7 3 -2 5 12 5 14 0
19 -2 13 -5z m147 -23 c0 -5 -17 -9 -37 -9 l-38 2 35 7 c19 4 36 8 38 9 1 0 2
-3 2 -9z m370 0 c0 -6 -17 -10 -38 -10 -21 0 -44 -6 -50 -12 -10 -10 -15 -10
-20 -1 -4 6 -14 11 -22 11 -34 -2 -55 2 -43 10 18 11 173 13 173 2z m375 0 c3
-6 -1 -7 -9 -4 -18 7 -21 14 -7 14 6 0 13 -4 16 -10z m-845 -15 c10 -12 10
-15 -4 -15 -9 0 -16 7 -16 15 0 8 2 15 4 15 2 0 9 -7 16 -15z m507 9 c-3 -3
-12 -4 -19 -1 -8 3 -5 6 6 6 11 1 17 -2 13 -5z m-337 -14 c8 -5 11 -10 5 -10
-5 0 -17 5 -25 10 -8 5 -10 10 -5 10 6 0 17 -5 25 -10z m50 -10 c0 -5 -5 -10
-11 -10 -5 0 -7 5 -4 10 3 6 8 10 11 10 2 0 4 -4 4 -10z m730 -16 c0 -2 -7 -4
-15 -4 -8 0 -15 4 -15 10 0 5 7 7 15 4 8 -4 15 -8 15 -10z m20 -44 c0 -5 -9
-6 -20 -3 -11 3 -20 9 -20 13 0 5 9 6 20 3 11 -3 20 -9 20 -13z m-259 -27
c-12 -20 -14 -14 -5 12 4 9 9 14 11 11 3 -2 0 -13 -6 -23z m368 -4 c-7 -4 -17
-5 -22 -2 -5 3 -3 9 4 14 7 4 17 5 22 2 5 -3 3 -9 -4 -14z m-1344 -9 c3 -5 1
-10 -4 -10 -6 0 -11 5 -11 10 0 6 2 10 4 10 3 0 8 -4 11 -10z m1045 -10 c0 -5
-4 -10 -9 -10 -6 0 -13 5 -16 10 -3 6 1 10 9 10 9 0 16 -4 16 -10z"/>
<path d="M2265 3070 c3 -5 8 -10 11 -10 2 0 4 5 4 10 0 6 -5 10 -11 10 -5 0
-7 -4 -4 -10z"/>
<path d="M2210 2980 c0 -5 7 -10 15 -10 8 0 15 5 15 10 0 6 -7 10 -15 10 -8 0
-15 -4 -15 -10z"/>
<path d="M2155 2910 c3 -5 10 -10 16 -10 5 0 9 5 9 10 0 6 -7 10 -16 10 -8 0
-12 -4 -9 -10z"/>
<path d="M2130 2879 c0 -5 5 -7 10 -4 6 3 10 8 10 11 0 2 -4 4 -10 4 -5 0 -10
-5 -10 -11z"/>
<path d="M2170 2826 c0 -2 7 -6 15 -10 8 -3 15 -1 15 4 0 6 -7 10 -15 10 -8 0
-15 -2 -15 -4z"/>
<path d="M1885 2640 c-3 -5 3 -10 14 -10 12 0 21 5 21 10 0 6 -6 10 -14 10 -8
0 -18 -4 -21 -10z"/>
<path d="M1880 2450 c0 -5 5 -10 11 -10 5 0 7 5 4 10 -3 6 -8 10 -11 10 -2 0
-4 -4 -4 -10z"/>
<path d="M2031 904 c0 -11 3 -14 6 -6 3 7 2 16 -1 19 -3 4 -6 -2 -5 -13z"/>
<path d="M4418 233 c6 -2 18 -2 25 0 6 3 1 5 -13 5 -14 0 -19 -2 -12 -5z"/>
<path d="M2995 5270 c4 -6 11 -8 16 -5 14 9 11 15 -7 15 -8 0 -12 -5 -9 -10z"/>
<path d="M2378 5223 c7 -3 16 -2 19 1 4 3 -2 6 -13 5 -11 0 -14 -3 -6 -6z"/>
<path d="M2084 5105 c-4 -8 -17 -15 -30 -15 -17 0 -22 -4 -17 -16 4 -11 -5
-26 -25 -44 -17 -15 -29 -30 -26 -33 7 -7 99 85 107 107 4 9 4 16 1 16 -2 0
-7 -7 -10 -15z"/>
<path d="M2135 5078 c-24 -13 -127 -108 -117 -108 4 0 25 16 46 35 47 42 52
43 30 10 -9 -15 -12 -25 -5 -25 5 0 8 -8 5 -17 -4 -13 0 -12 15 6 12 12 18 27
15 32 -3 5 1 9 8 9 8 0 23 6 34 14 18 14 16 15 -16 11 l-35 -4 28 15 c15 8 27
19 27 24 0 13 -10 12 -35 -2z"/>
<path d="M1960 4980 c0 -19 3 -21 12 -12 9 9 9 15 0 24 -9 9 -12 7 -12 -12z"/>
<path d="M2066 4963 c-6 -14 -5 -15 5 -6 7 7 10 15 7 18 -3 3 -9 -2 -12 -12z"/>
<path d="M1896 4823 c-6 -14 -5 -15 5 -6 7 7 10 15 7 18 -3 3 -9 -2 -12 -12z"/>
<path d="M1629 4393 l-24 -28 28 24 c25 23 32 31 24 31 -2 0 -14 -12 -28 -27z"/>
<path d="M1662 4385 c-12 -14 -18 -25 -13 -25 5 0 16 11 25 25 9 14 15 25 13
25 -2 0 -13 -11 -25 -25z"/>
<path d="M1988 4313 c7 -3 16 -2 19 1 4 3 -2 6 -13 5 -11 0 -14 -3 -6 -6z"/>
<path d="M1943 4175 c0 -8 4 -15 9 -15 4 0 8 4 8 9 0 6 -4 12 -8 15 -5 3 -9
-1 -9 -9z"/>
<path d="M1825 3880 c-3 -5 -1 -10 4 -10 6 0 11 5 11 10 0 6 -2 10 -4 10 -3 0
-8 -4 -11 -10z"/>
<path d="M2330 3800 c-13 -8 -13 -10 2 -10 9 0 20 5 23 10 8 13 -5 13 -25 0z"/>
<path d="M3096 3591 c-4 -6 -18 -11 -30 -11 -13 0 -34 -10 -48 -23 -14 -14
-35 -22 -47 -20 -14 2 -21 -2 -21 -13 0 -10 6 -14 15 -10 9 3 15 0 15 -9 0 -9
-6 -12 -15 -9 -15 6 -19 -7 -15 -53 1 -13 -3 -23 -9 -23 -6 0 -11 -4 -11 -10
0 -5 7 -10 15 -10 8 0 15 -2 15 -5 0 -7 -24 -60 -30 -65 -3 -3 -14 -21 -23
-42 -20 -42 -22 -111 -5 -194 12 -64 24 -78 106 -134 31 -21 52 -42 52 -54 0
-12 5 -16 15 -12 8 3 27 -6 42 -20 14 -13 31 -23 37 -21 6 3 19 0 28 -4 10 -6
19 -5 23 2 4 6 -2 13 -14 16 -14 4 -19 12 -17 27 2 11 9 20 15 18 17 -3 13 18
-4 24 -8 4 -15 15 -15 26 0 17 5 18 50 13 60 -7 70 14 18 36 -44 17 -79 54
-65 68 7 7 16 7 29 0 10 -5 23 -7 28 -4 6 3 10 1 10 -5 0 -6 4 -8 10 -5 5 3
34 6 64 6 39 1 53 5 50 13 -3 7 1 13 8 14 7 0 29 3 50 6 27 5 49 -1 90 -22
104 -54 126 -8 33 69 -87 72 -202 117 -350 137 -92 12 -115 13 -115 1 0 -6 -7
-6 -17 0 -10 5 -26 12 -36 15 -10 3 -16 10 -13 15 4 5 2 11 -3 13 -4 1 -11 14
-15 28 -3 14 -3 19 0 12 3 -6 10 -9 15 -6 6 3 5 11 -2 20 -9 11 -8 14 5 14 9
0 16 -4 16 -10 0 -5 25 -10 55 -10 30 0 55 -4 55 -10 0 -6 28 -8 73 -5 51 3
66 1 52 -6 -16 -7 -14 -8 10 -3 36 8 35 8 110 5 37 -1 55 -5 47 -10 -11 -7
-10 -10 3 -15 9 -3 26 -6 38 -6 16 0 18 -3 9 -9 -9 -5 0 -10 27 -15 24 -3 40
-11 38 -18 -1 -7 14 -17 33 -24 33 -11 34 -12 10 -17 -23 -4 -23 -4 -2 -6 12
0 22 -6 22 -12 0 -6 6 -9 14 -6 11 4 13 0 10 -17 -3 -20 0 -23 21 -18 14 2 23
8 20 12 -3 5 3 11 12 13 11 3 6 5 -12 7 -26 1 -27 3 -10 10 11 5 14 9 7 9 -7
1 -10 6 -7 12 4 6 13 8 20 5 10 -3 9 3 -3 25 -9 16 -23 29 -30 29 -7 0 -11 4
-8 8 3 5 -4 19 -15 31 -12 12 -19 28 -16 35 3 7 -3 19 -14 27 -10 7 -19 19
-19 27 0 7 -5 10 -11 7 -6 -4 -13 1 -15 12 -6 23 -100 77 -121 69 -9 -4 -21 1
-28 11 -12 15 -17 16 -47 5 -38 -13 -96 -1 -111 25 -5 7 -12 11 -18 8 -5 -4
-19 1 -31 9 -25 18 -53 21 -43 6 8 -14 -28 -13 -42 1 -8 8 -13 8 -17 0z m283
-420 c11 -7 9 -13 -8 -30 -27 -27 -44 -19 -29 14 12 27 16 29 37 16z m-429
-48 c0 -24 -25 -9 -28 17 -3 21 -2 22 12 11 9 -7 16 -20 16 -28z m395 -31 c-3
-3 -11 0 -18 7 -9 10 -8 11 6 5 10 -3 15 -9 12 -12z"/>
<path d="M2611 3464 c0 -11 3 -14 6 -6 3 7 2 16 -1 19 -3 4 -6 -2 -5 -13z"/>
<path d="M1276 3429 c-14 -20 -10 -25 60 -94 41 -41 74 -80 74 -87 1 -7 12
-26 25 -43 l25 -30 -6 55 c-3 30 -10 57 -15 61 -6 3 -12 18 -12 31 -1 14 -7
24 -13 21 -6 -2 -14 9 -17 24 -8 38 -52 83 -82 83 -13 0 -31 -9 -39 -21z"/>
<path d="M3630 3380 c0 -5 5 -10 11 -10 5 0 7 5 4 10 -3 6 -8 10 -11 10 -2 0
-4 -4 -4 -10z"/>
<path d="M3368 3343 c7 -3 16 -2 19 1 4 3 -2 6 -13 5 -11 0 -14 -3 -6 -6z"/>
<path d="M2688 3323 c7 -3 16 -2 19 1 4 3 -2 6 -13 5 -11 0 -14 -3 -6 -6z"/>
<path d="M1680 3280 c0 -5 5 -10 11 -10 5 0 7 5 4 10 -3 6 -8 10 -11 10 -2 0
-4 -4 -4 -10z"/>
<path d="M1366 3165 l-16 -25 35 0 c38 0 40 2 25 31 -14 25 -24 24 -44 -6z"/>
<path d="M1297 3174 c-10 -11 -8 -26 2 -20 5 4 11 0 14 -6 2 -7 8 -10 13 -5 4
4 1 14 -7 22 -8 9 -18 12 -22 9z"/>
<path d="M1430 3166 c0 -2 7 -6 15 -10 8 -3 15 -1 15 4 0 6 -7 10 -15 10 -8 0
-15 -2 -15 -4z"/>
<path d="M3658 3163 c7 -3 16 -2 19 1 4 3 -2 6 -13 5 -11 0 -14 -3 -6 -6z"/>
<path d="M3680 3140 c0 -5 5 -10 11 -10 5 0 7 5 4 10 -3 6 -8 10 -11 10 -2 0
-4 -4 -4 -10z"/>
<path d="M1450 3123 c1 -13 29 -59 30 -48 0 21 -13 55 -21 55 -5 0 -9 -3 -9
-7z"/>
<path d="M4020 3012 c-65 -41 -70 -51 -69 -126 0 -39 4 -91 8 -116 l7 -45 12
41 c7 22 16 64 22 91 5 28 18 77 29 109 11 33 19 59 18 60 -1 1 -13 -5 -27
-14z"/>
<path d="M3286 2998 c3 -13 8 -24 9 -26 5 -6 45 22 45 31 0 4 -4 6 -9 2 -5 -3
-12 -1 -16 5 -3 5 -13 10 -21 10 -11 0 -13 -6 -8 -22z"/>
<path d="M1298 2970 c-21 -44 -10 -130 18 -130 8 0 13 -4 10 -9 -3 -5 1 -14 9
-21 10 -8 15 -9 15 -1 0 6 11 13 24 17 l23 5 -18 37 c-11 20 -19 44 -19 54 0
10 -8 26 -19 37 -10 10 -20 24 -23 31 -2 7 -11 -2 -20 -20z"/>
<path d="M3151 2824 c0 -11 3 -14 6 -6 3 7 2 16 -1 19 -3 4 -6 -2 -5 -13z"/>
<path d="M3260 2815 c0 -8 7 -15 15 -15 8 0 15 7 15 15 0 8 -7 15 -15 15 -8 0
-15 -7 -15 -15z"/>
<path d="M1430 2806 c0 -8 5 -18 10 -21 6 -3 10 1 10 9 0 8 -4 18 -10 21 -5 3
-10 -1 -10 -9z"/>
<path d="M3045 2810 c-3 -5 1 -10 10 -10 9 0 13 5 10 10 -3 6 -8 10 -10 10 -2
0 -7 -4 -10 -10z"/>
<path d="M3851 2783 c-10 -25 -51 -213 -51 -234 0 -13 35 -6 55 11 26 22 55
96 55 142 0 36 -29 108 -44 108 -2 0 -9 -12 -15 -27z"/>
<path d="M3080 2775 c0 -8 -7 -15 -15 -15 -8 0 -15 -5 -15 -11 0 -6 7 -8 16
-5 9 3 19 6 24 6 4 0 10 9 13 20 3 13 0 20 -9 20 -8 0 -14 -7 -14 -15z"/>
<path d="M3214 2775 c-9 -22 1 -29 15 -11 8 10 9 16 1 21 -5 3 -13 -1 -16 -10z"/>
<path d="M3110 2740 c0 -5 5 -10 11 -10 5 0 7 5 4 10 -3 6 -8 10 -11 10 -2 0
-4 -4 -4 -10z"/>
<path d="M3067 2710 c-7 -26 11 -36 30 -17 14 13 13 16 -5 26 -16 9 -21 7 -25
-9z"/>
<path d="M3106 2482 c-3 -6 -1 -14 5 -17 15 -10 25 3 12 16 -7 7 -13 7 -17 1z"/>
<path d="M3128 2428 c4 -15 5 -15 23 0 24 20 24 20 -4 18 -17 -1 -23 -6 -19
-18z"/>
<path d="M1652 2220 c0 -14 2 -19 5 -12 2 6 2 18 0 25 -3 6 -5 1 -5 -13z"/>
<path d="M2985 2230 c4 -6 11 -8 16 -5 14 9 11 15 -7 15 -8 0 -12 -5 -9 -10z"/>
<path d="M1660 2131 c0 -6 5 -13 10 -16 6 -3 10 1 10 9 0 9 -4 16 -10 16 -5 0
-10 -4 -10 -9z"/>
<path d="M3317 1663 c-4 -3 -7 -11 -7 -17 0 -6 5 -5 12 2 6 6 9 14 7 17 -3 3
-9 2 -12 -2z"/>
<path d="M3120 1579 c0 -5 5 -7 10 -4 6 3 10 8 10 11 0 2 -4 4 -10 4 -5 0 -10
-5 -10 -11z"/>
<path d="M3260 1340 c0 -5 5 -10 11 -10 5 0 7 5 4 10 -3 6 -8 10 -11 10 -2 0
-4 -4 -4 -10z"/>
<path d="M3000 1174 c0 -8 5 -12 10 -9 6 4 8 11 5 16 -9 14 -15 11 -15 -7z"/>
<path d="M1217 543 c-4 -3 -7 -19 -7 -33 0 -15 -7 -33 -15 -40 -13 -11 -12
-15 8 -36 12 -13 25 -24 30 -24 4 0 7 32 7 70 0 64 -6 81 -23 63z"/>
<path d="M1322 438 c6 -18 28 -21 28 -4 0 9 -7 16 -16 16 -9 0 -14 -5 -12 -12z"/>
<path d="M978 363 c-10 -2 -18 -9 -18 -14 0 -5 -7 -9 -16 -9 -8 0 -13 -4 -10
-9 7 -11 46 -2 46 10 0 5 7 9 15 9 8 0 15 5 15 10 0 10 -3 11 -32 3z"/>
<path d="M766 289 c20 -22 55 -22 62 0 3 8 0 11 -5 8 -6 -4 -25 -2 -43 3 -32
9 -32 9 -14 -11z"/>
<path d="M215 191 c-3 -16 -13 -32 -21 -35 -8 -3 -14 -12 -14 -21 0 -8 -5 -15
-11 -15 -6 0 -8 -9 -4 -20 3 -11 2 -20 -4 -20 -18 0 -41 -31 -41 -56 0 -23 2
-24 75 -24 41 0 75 3 76 8 6 64 11 97 14 100 2 2 0 15 -6 29 -5 15 -5 31 0 42
7 13 5 20 -10 29 -30 19 -47 14 -54 -17z"/>
<path d="M1734 183 c10 -11 37 -12 30 -2 -3 5 -12 9 -21 9 -9 0 -13 -3 -9 -7z"/>
<path d="M47 148 c-19 -50 -19 -54 -2 -37 9 9 15 25 13 35 -5 18 -5 18 -11 2z"/>
<path d="M1426 151 c-4 -5 3 -7 14 -4 23 6 26 13 6 13 -8 0 -17 -4 -20 -9z"/>
<path d="M1550 147 c-44 -23 -81 -50 -76 -54 3 -3 17 4 32 16 15 11 32 21 39
21 7 0 18 7 25 15 15 18 12 19 -20 2z"/>
<path d="M4835 125 l-30 -13 40 -36 c21 -20 44 -36 49 -36 8 0 8 3 0 8 -6 4
-13 15 -17 25 -3 9 -13 17 -22 17 -8 0 -15 7 -15 16 0 11 6 14 23 10 12 -3 16
-3 9 0 -6 3 -10 10 -6 15 6 11 7 11 -31 -6z"/>
<path d="M4905 90 c3 -5 8 -10 11 -10 2 0 4 5 4 10 0 6 -5 10 -11 10 -5 0 -7
-4 -4 -10z"/>
<path d="M1445 72 c-19 -14 -37 -42 -27 -42 5 0 17 11 26 25 17 26 17 29 1 17z"/>
<path d="M4930 69 c0 -5 5 -7 10 -4 6 3 10 8 10 11 0 2 -4 4 -10 4 -5 0 -10
-5 -10 -11z"/>
<path d="M4972 44 c9 -9 21 -13 27 -9 16 10 3 25 -22 25 -20 0 -20 -1 -5 -16z"/>
<path d="M5050 15 c7 -8 20 -15 28 -15 13 0 12 3 -4 15 -25 19 -40 19 -24 0z"/>
<path d="M4870 10 c0 -5 9 -10 21 -10 11 0 17 4 14 10 -8 13 -35 13 -35 0z"/>
</g>
</svg>
